<svg width="79" height="24" viewBox="0 0 79 24" fill="none" xmlns="http://www.w3.org/2000/svg">
<path d="M32.752 17.192C31.9307 17.192 31.216 17.0427 30.608 16.744C30 16.4453 29.5307 16.0293 29.2 15.496C28.8693 14.9627 28.704 14.344 28.704 13.64H30.112C30.112 14.0773 30.2133 14.4827 30.416 14.856C30.6187 15.2187 30.912 15.512 31.296 15.736C31.6907 15.9493 32.176 16.056 32.752 16.056C33.5093 16.056 34.096 15.8747 34.512 15.512C34.928 15.1493 35.136 14.696 35.136 14.152C35.136 13.704 35.04 13.3467 34.848 13.08C34.656 12.8027 34.3947 12.5787 34.064 12.408C33.744 12.2373 33.3707 12.088 32.944 11.96C32.528 11.832 32.0907 11.688 31.632 11.528C30.768 11.2293 30.128 10.8613 29.712 10.424C29.296 9.976 29.088 9.39467 29.088 8.68C29.0773 8.08267 29.216 7.55467 29.504 7.096C29.792 6.62667 30.1973 6.264 30.72 6.008C31.2533 5.74133 31.8827 5.608 32.608 5.608C33.3227 5.608 33.9413 5.74133 34.464 6.008C34.9973 6.27467 35.408 6.64267 35.696 7.112C35.9947 7.58133 36.1493 8.11467 36.16 8.712H34.752C34.752 8.40267 34.672 8.09867 34.512 7.8C34.352 7.49067 34.1067 7.24 33.776 7.048C33.456 6.856 33.0507 6.76 32.56 6.76C31.952 6.74933 31.4507 6.904 31.056 7.224C30.672 7.544 30.48 7.98667 30.48 8.552C30.48 9.032 30.6133 9.4 30.88 9.656C31.1573 9.912 31.5413 10.1253 32.032 10.296C32.5227 10.456 33.088 10.6427 33.728 10.856C34.2613 11.048 34.7413 11.272 35.168 11.528C35.5947 11.784 35.9253 12.1147 36.16 12.52C36.4053 12.9253 36.528 13.4427 36.528 14.072C36.528 14.6053 36.3893 15.112 36.112 15.592C35.8347 16.0613 35.4133 16.4453 34.848 16.744C34.2933 17.0427 33.5947 17.192 32.752 17.192ZM41.922 17.192C41.1647 17.192 40.4927 17.0213 39.906 16.68C39.3193 16.328 38.8553 15.8427 38.514 15.224C38.1833 14.6053 38.018 13.8747 38.018 13.032C38.018 12.2 38.1833 11.4747 38.514 10.856C38.8447 10.2267 39.3033 9.74133 39.89 9.4C40.4873 9.048 41.1753 8.872 41.954 8.872C42.722 8.872 43.3833 9.048 43.938 9.4C44.5033 9.74133 44.9353 10.1947 45.234 10.76C45.5327 11.3253 45.682 11.9333 45.682 12.584C45.682 12.7013 45.6767 12.8187 45.666 12.936C45.666 13.0533 45.666 13.1867 45.666 13.336H39.346C39.378 13.944 39.5167 14.4507 39.762 14.856C40.018 15.2507 40.3327 15.5493 40.706 15.752C41.09 15.9547 41.4953 16.056 41.922 16.056C42.4767 16.056 42.9407 15.928 43.314 15.672C43.6873 15.416 43.9593 15.0693 44.13 14.632H45.458C45.2447 15.368 44.834 15.9813 44.226 16.472C43.6287 16.952 42.8607 17.192 41.922 17.192ZM41.922 10.008C41.282 10.008 40.7113 10.2053 40.21 10.6C39.7193 10.984 39.4367 11.5493 39.362 12.296H44.354C44.322 11.5813 44.0767 11.0213 43.618 10.616C43.1593 10.2107 42.594 10.008 41.922 10.008ZM50.1034 17.192C49.442 17.192 48.8927 17.08 48.4554 16.856C48.018 16.632 47.6927 16.3333 47.4794 15.96C47.266 15.5867 47.1594 15.1813 47.1594 14.744C47.1594 13.9333 47.4687 13.3093 48.0874 12.872C48.706 12.4347 49.5487 12.216 50.6154 12.216H52.7594V12.12C52.7594 11.4267 52.578 10.904 52.2154 10.552C51.8527 10.1893 51.3674 10.008 50.7594 10.008C50.2367 10.008 49.7834 10.1413 49.3994 10.408C49.026 10.664 48.7914 11.0427 48.6954 11.544H47.3194C47.3727 10.968 47.5647 10.4827 47.8954 10.088C48.2367 9.69333 48.658 9.39467 49.1594 9.192C49.6607 8.97867 50.194 8.872 50.7594 8.872C51.8687 8.872 52.7007 9.17067 53.2554 9.768C53.8207 10.3547 54.1034 11.1387 54.1034 12.12V17H52.9034L52.8234 15.576C52.5994 16.024 52.2687 16.408 51.8314 16.728C51.4047 17.0373 50.8287 17.192 50.1034 17.192ZM50.3114 16.056C50.8234 16.056 51.2607 15.9227 51.6234 15.656C51.9967 15.3893 52.2794 15.0427 52.4714 14.616C52.6634 14.1893 52.7594 13.7413 52.7594 13.272V13.256H50.7274C49.938 13.256 49.378 13.3947 49.0474 13.672C48.7274 13.9387 48.5674 14.2747 48.5674 14.68C48.5674 15.096 48.7167 15.432 49.0154 15.688C49.3247 15.9333 49.7567 16.056 50.3114 16.056ZM56.1196 17V9.064H57.3356L57.4476 10.584C57.693 10.0613 58.0663 9.64533 58.5676 9.336C59.069 9.02667 59.6876 8.872 60.4236 8.872V10.28H60.0556C59.5863 10.28 59.1543 10.3653 58.7596 10.536C58.365 10.696 58.0503 10.9733 57.8156 11.368C57.581 11.7627 57.4636 12.3067 57.4636 13V17H56.1196ZM65.2833 17.192C64.5259 17.192 63.8433 17.0213 63.2353 16.68C62.6379 16.328 62.1633 15.8427 61.8113 15.224C61.4699 14.5947 61.2993 13.864 61.2993 13.032C61.2993 12.2 61.4699 11.4747 61.8113 10.856C62.1633 10.2267 62.6379 9.74133 63.2353 9.4C63.8433 9.048 64.5259 8.872 65.2833 8.872C66.2219 8.872 67.0113 9.11733 67.6513 9.608C68.3019 10.0987 68.7126 10.7547 68.8833 11.576H67.5073C67.4006 11.0853 67.1393 10.7067 66.7233 10.44C66.3073 10.1627 65.8219 10.024 65.2673 10.024C64.8193 10.024 64.3979 10.136 64.0033 10.36C63.6086 10.584 63.2886 10.92 63.0433 11.368C62.7979 11.816 62.6753 12.3707 62.6753 13.032C62.6753 13.6933 62.7979 14.248 63.0433 14.696C63.2886 15.144 63.6086 15.4853 64.0033 15.72C64.3979 15.944 64.8193 16.056 65.2673 16.056C65.8219 16.056 66.3073 15.9227 66.7233 15.656C67.1393 15.3787 67.4006 14.9893 67.5073 14.488H68.8833C68.7233 15.288 68.3179 15.9387 67.6673 16.44C67.0166 16.9413 66.2219 17.192 65.2833 17.192ZM70.7603 17V5.48H72.1043V10.424C72.3709 9.93333 72.7496 9.55467 73.2403 9.288C73.7309 9.01067 74.2643 8.872 74.8403 8.872C75.7576 8.872 76.4936 9.16 77.0483 9.736C77.6029 10.3013 77.8802 11.176 77.8802 12.36V17H76.5523V12.504C76.5523 10.8507 75.8856 10.024 74.5523 10.024C73.8589 10.024 73.2776 10.2747 72.8083 10.776C72.3389 11.2667 72.1043 11.9707 72.1043 12.888V17H70.7603Z" fill="white"/>
<path d="M6.00977 12.0566C6.70247 12.7493 7.54362 13.0957 8.5332 13.0957C9.52279 13.0957 10.3639 12.7493 11.0566 12.0566C11.7493 11.3639 12.0957 10.5228 12.0957 9.5332C12.0957 8.54362 11.7493 7.70247 11.0566 7.00977C10.3639 6.31706 9.52279 5.9707 8.5332 5.9707C7.54362 5.9707 6.70247 6.31706 6.00977 7.00977C5.31706 7.70247 4.9707 8.54362 4.9707 9.5332C4.9707 10.5228 5.31706 11.3639 6.00977 12.0566ZM13.2832 13.0957L17.2168 17.0293L16.0293 18.2168L12.0957 14.2832V13.6523L11.873 13.4297C10.9329 14.2461 9.81966 14.6543 8.5332 14.6543C7.09831 14.6543 5.8737 14.1595 4.85938 13.1699C3.86979 12.1803 3.375 10.9681 3.375 9.5332C3.375 8.09831 3.86979 6.88607 4.85938 5.89648C5.8737 4.88216 7.09831 4.375 8.5332 4.375C9.9681 4.375 11.1803 4.88216 12.1699 5.89648C13.1595 6.88607 13.6543 8.09831 13.6543 9.5332C13.6543 10.0527 13.5306 10.6465 13.2832 11.3145C13.0358 11.9577 12.7513 12.4772 12.4297 12.873L12.6523 13.0957H13.2832Z" fill="white"/>
</svg>
