<svg width="61" height="42" viewBox="0 0 61 42" fill="none" xmlns="http://www.w3.org/2000/svg">
<path d="M34.096 26.192C32.9973 26.192 32.048 25.952 31.248 25.472C30.4587 24.9813 29.8453 24.304 29.408 23.44C28.9707 22.5653 28.752 21.552 28.752 20.4C28.752 19.2587 28.9707 18.256 29.408 17.392C29.8453 16.5173 30.4587 15.8347 31.248 15.344C32.048 14.8533 32.9973 14.608 34.096 14.608C35.376 14.608 36.416 14.9173 37.216 15.536C38.0267 16.144 38.544 16.9973 38.768 18.096H37.28C37.1093 17.4027 36.7573 16.848 36.224 16.432C35.7013 16.0053 34.992 15.792 34.096 15.792C33.296 15.792 32.5973 15.9787 32 16.352C31.4027 16.7147 30.9387 17.2427 30.608 17.936C30.288 18.6187 30.128 19.44 30.128 20.4C30.128 21.36 30.288 22.1867 30.608 22.88C30.9387 23.5627 31.4027 24.0907 32 24.464C32.5973 24.8267 33.296 25.008 34.096 25.008C34.992 25.008 35.7013 24.8053 36.224 24.4C36.7573 23.984 37.1093 23.4347 37.28 22.752H38.768C38.544 23.8293 38.0267 24.672 37.216 25.28C36.416 25.888 35.376 26.192 34.096 26.192ZM43.2596 26.192C42.5983 26.192 42.049 26.08 41.6116 25.856C41.1743 25.632 40.849 25.3333 40.6356 24.96C40.4223 24.5867 40.3156 24.1813 40.3156 23.744C40.3156 22.9333 40.625 22.3093 41.2436 21.872C41.8623 21.4347 42.705 21.216 43.7716 21.216H45.9156V21.12C45.9156 20.4267 45.7343 19.904 45.3716 19.552C45.009 19.1893 44.5236 19.008 43.9156 19.008C43.393 19.008 42.9396 19.1413 42.5556 19.408C42.1823 19.664 41.9476 20.0427 41.8516 20.544H40.4756C40.529 19.968 40.721 19.4827 41.0516 19.088C41.393 18.6933 41.8143 18.3947 42.3156 18.192C42.817 17.9787 43.3503 17.872 43.9156 17.872C45.025 17.872 45.857 18.1707 46.4116 18.768C46.977 19.3547 47.2596 20.1387 47.2596 21.12V26H46.0596L45.9796 24.576C45.7556 25.024 45.425 25.408 44.9876 25.728C44.561 26.0373 43.985 26.192 43.2596 26.192ZM43.4676 25.056C43.9796 25.056 44.417 24.9227 44.7796 24.656C45.153 24.3893 45.4356 24.0427 45.6276 23.616C45.8196 23.1893 45.9156 22.7413 45.9156 22.272V22.256H43.8836C43.0943 22.256 42.5343 22.3947 42.2036 22.672C41.8836 22.9387 41.7236 23.2747 41.7236 23.68C41.7236 24.096 41.873 24.432 42.1716 24.688C42.481 24.9333 42.913 25.056 43.4676 25.056ZM49.2759 26V18.064H50.4919L50.6039 19.584C50.8492 19.0613 51.2225 18.6453 51.7239 18.336C52.2252 18.0267 52.8439 17.872 53.5799 17.872V19.28H53.2119C52.7425 19.28 52.3105 19.3653 51.9159 19.536C51.5212 19.696 51.2065 19.9733 50.9719 20.368C50.7372 20.7627 50.6199 21.3067 50.6199 22V26H49.2759ZM58.2244 26C57.499 26 56.9284 25.824 56.5124 25.472C56.0964 25.12 55.8884 24.4853 55.8884 23.568V19.2H54.5124V18.064H55.8884L56.0644 16.16H57.2324V18.064H59.5684V19.2H57.2324V23.568C57.2324 24.0693 57.3337 24.4107 57.5364 24.592C57.739 24.7627 58.0964 24.848 58.6084 24.848H59.4404V26H58.2244Z" fill="white"/>
<path d="M13.3574 25.7324C13.679 25.4108 14.0501 25.25 14.4707 25.25C14.8913 25.25 15.25 25.4108 15.5469 25.7324C15.8685 26.054 16.0293 26.4251 16.0293 26.8457C16.0293 27.2663 15.8685 27.6374 15.5469 27.959C15.25 28.2559 14.8913 28.4043 14.4707 28.4043C14.0501 28.4043 13.679 28.2559 13.3574 27.959C13.0358 27.6374 12.875 27.2663 12.875 26.8457C12.875 26.4251 13.0358 26.054 13.3574 25.7324ZM1.7793 12.5957H4.37695L5.11914 14.1543H16.8457C17.0684 14.1543 17.2539 14.2409 17.4023 14.4141C17.5508 14.5625 17.625 14.748 17.625 14.9707C17.625 14.9954 17.5879 15.1191 17.5137 15.3418L14.6934 20.4629C14.3965 21.0072 13.9388 21.2793 13.3203 21.2793H7.41992L6.71484 22.5781L6.67773 22.6895C6.67773 22.8132 6.73958 22.875 6.86328 22.875H16.0293V24.4707H6.5293C6.10872 24.4707 5.73763 24.3099 5.41602 23.9883C5.11914 23.6667 4.9707 23.2956 4.9707 22.875C4.9707 22.6276 5.03255 22.3802 5.15625 22.1328L6.23242 20.166L3.375 14.1543H1.7793V12.5957ZM5.41602 25.7324C5.73763 25.4108 6.10872 25.25 6.5293 25.25C6.94987 25.25 7.32096 25.4108 7.64258 25.7324C7.96419 26.054 8.125 26.4251 8.125 26.8457C8.125 27.2663 7.96419 27.6374 7.64258 27.959C7.32096 28.2559 6.94987 28.4043 6.5293 28.4043C6.10872 28.4043 5.73763 28.2559 5.41602 27.959C5.11914 27.6374 4.9707 27.2663 4.9707 26.8457C4.9707 26.4251 5.11914 26.054 5.41602 25.7324Z" fill="white"/>
</svg>
