<svg width="124" height="40" viewBox="0 0 124 40" fill="none" xmlns="http://www.w3.org/2000/svg">
<path d="M109.984 24.5L115.984 20L109.984 15.5V24.5ZM104.922 12.9688C106.891 11 109.25 10.0156 112 10.0156C114.75 10.0156 117.094 11 119.031 12.9688C121 14.9062 121.984 17.25 121.984 20C121.984 22.75 121 25.1094 119.031 27.0781C117.094 29.0156 114.75 29.9844 112 29.9844C109.25 29.9844 106.891 29.0156 104.922 27.0781C102.984 25.1094 102.016 22.75 102.016 20C102.016 17.25 102.984 14.9062 104.922 12.9688Z" fill="white"/>
<path d="M4.113 25.016L1.041 13.8H2.481L4.897 23.416L7.649 13.8H9.137L11.809 23.416L14.257 13.8H15.697L12.561 25H11.025L8.353 15.752L5.617 25L4.113 25.016ZM19.0565 25.192C18.3952 25.192 17.8458 25.08 17.4085 24.856C16.9712 24.632 16.6458 24.3333 16.4325 23.96C16.2192 23.5867 16.1125 23.1813 16.1125 22.744C16.1125 21.9333 16.4218 21.3093 17.0405 20.872C17.6592 20.4347 18.5018 20.216 19.5685 20.216H21.7125V20.12C21.7125 19.4267 21.5312 18.904 21.1685 18.552C20.8058 18.1893 20.3205 18.008 19.7125 18.008C19.1898 18.008 18.7365 18.1413 18.3525 18.408C17.9792 18.664 17.7445 19.0427 17.6485 19.544H16.2725C16.3258 18.968 16.5178 18.4827 16.8485 18.088C17.1898 17.6933 17.6112 17.3947 18.1125 17.192C18.6138 16.9787 19.1472 16.872 19.7125 16.872C20.8218 16.872 21.6538 17.1707 22.2085 17.768C22.7738 18.3547 23.0565 19.1387 23.0565 20.12V25H21.8565L21.7765 23.576C21.5525 24.024 21.2218 24.408 20.7845 24.728C20.3578 25.0373 19.7818 25.192 19.0565 25.192ZM19.2645 24.056C19.7765 24.056 20.2138 23.9227 20.5765 23.656C20.9498 23.3893 21.2325 23.0427 21.4245 22.616C21.6165 22.1893 21.7125 21.7413 21.7125 21.272V21.256H19.6805C18.8912 21.256 18.3312 21.3947 18.0005 21.672C17.6805 21.9387 17.5205 22.2747 17.5205 22.68C17.5205 23.096 17.6698 23.432 17.9685 23.688C18.2778 23.9333 18.7098 24.056 19.2645 24.056ZM27.99 25C27.2647 25 26.694 24.824 26.278 24.472C25.862 24.12 25.654 23.4853 25.654 22.568V18.2H24.278V17.064H25.654L25.83 15.16H26.998V17.064H29.334V18.2H26.998V22.568C26.998 23.0693 27.0993 23.4107 27.302 23.592C27.5047 23.7627 27.862 23.848 28.374 23.848H29.206V25H27.99ZM34.4708 25.192C33.7134 25.192 33.0308 25.0213 32.4228 24.68C31.8254 24.328 31.3508 23.8427 30.9988 23.224C30.6574 22.5947 30.4868 21.864 30.4868 21.032C30.4868 20.2 30.6574 19.4747 30.9988 18.856C31.3508 18.2267 31.8254 17.7413 32.4228 17.4C33.0308 17.048 33.7134 16.872 34.4708 16.872C35.4094 16.872 36.1988 17.1173 36.8388 17.608C37.4894 18.0987 37.9001 18.7547 38.0708 19.576H36.6948C36.5881 19.0853 36.3268 18.7067 35.9108 18.44C35.4948 18.1627 35.0094 18.024 34.4548 18.024C34.0068 18.024 33.5854 18.136 33.1908 18.36C32.7961 18.584 32.4761 18.92 32.2308 19.368C31.9854 19.816 31.8628 20.3707 31.8628 21.032C31.8628 21.6933 31.9854 22.248 32.2308 22.696C32.4761 23.144 32.7961 23.4853 33.1908 23.72C33.5854 23.944 34.0068 24.056 34.4548 24.056C35.0094 24.056 35.4948 23.9227 35.9108 23.656C36.3268 23.3787 36.5881 22.9893 36.6948 22.488H38.0708C37.9108 23.288 37.5054 23.9387 36.8548 24.44C36.2041 24.9413 35.4094 25.192 34.4708 25.192ZM39.9478 25V13.48H41.2918V18.424C41.5584 17.9333 41.9371 17.5547 42.4278 17.288C42.9184 17.0107 43.4518 16.872 44.0278 16.872C44.9451 16.872 45.6811 17.16 46.2358 17.736C46.7904 18.3013 47.0677 19.176 47.0677 20.36V25H45.7398V20.504C45.7398 18.8507 45.0731 18.024 43.7398 18.024C43.0464 18.024 42.4651 18.2747 41.9958 18.776C41.5264 19.2667 41.2918 19.9707 41.2918 20.888V25H39.9478ZM56.7944 25L52.5864 13.8H54.0424L57.5784 23.576L61.1464 13.8H62.5704L58.3624 25H56.7944ZM64.8419 15.304C64.5752 15.304 64.3512 15.2187 64.1699 15.048C63.9992 14.8667 63.9139 14.6427 63.9139 14.376C63.9139 14.12 63.9992 13.9067 64.1699 13.736C64.3512 13.5653 64.5752 13.48 64.8419 13.48C65.0979 13.48 65.3165 13.5653 65.4979 13.736C65.6792 13.9067 65.7699 14.12 65.7699 14.376C65.7699 14.6427 65.6792 14.8667 65.4979 15.048C65.3165 15.2187 65.0979 15.304 64.8419 15.304ZM64.1699 25V17.064H65.5139V25H64.1699ZM71.454 25.192C70.6647 25.192 69.9713 25.0107 69.374 24.648C68.7873 24.2853 68.3287 23.7893 67.998 23.16C67.678 22.5307 67.518 21.816 67.518 21.016C67.518 20.216 67.6833 19.5067 68.014 18.888C68.3447 18.2587 68.8033 17.768 69.39 17.416C69.9767 17.0533 70.67 16.872 71.47 16.872C72.1207 16.872 72.6967 17.0053 73.198 17.272C73.6993 17.5387 74.0887 17.912 74.366 18.392V13.48H75.71V25H74.494L74.366 23.688C74.11 24.072 73.742 24.4187 73.262 24.728C72.782 25.0373 72.1793 25.192 71.454 25.192ZM71.598 24.024C72.1313 24.024 72.6007 23.9013 73.006 23.656C73.422 23.4 73.742 23.048 73.966 22.6C74.2007 22.152 74.318 21.6293 74.318 21.032C74.318 20.4347 74.2007 19.912 73.966 19.464C73.742 19.016 73.422 18.6693 73.006 18.424C72.6007 18.168 72.1313 18.04 71.598 18.04C71.0753 18.04 70.606 18.168 70.19 18.424C69.7847 18.6693 69.4647 19.016 69.23 19.464C69.006 19.912 68.894 20.4347 68.894 21.032C68.894 21.6293 69.006 22.152 69.23 22.6C69.4647 23.048 69.7847 23.4 70.19 23.656C70.606 23.9013 71.0753 24.024 71.598 24.024ZM81.4689 25.192C80.7115 25.192 80.0395 25.0213 79.4529 24.68C78.8662 24.328 78.4022 23.8427 78.0609 23.224C77.7302 22.6053 77.5649 21.8747 77.5649 21.032C77.5649 20.2 77.7302 19.4747 78.0609 18.856C78.3915 18.2267 78.8502 17.7413 79.4369 17.4C80.0342 17.048 80.7222 16.872 81.5009 16.872C82.2689 16.872 82.9302 17.048 83.4849 17.4C84.0502 17.7413 84.4822 18.1947 84.7809 18.76C85.0795 19.3253 85.2289 19.9333 85.2289 20.584C85.2289 20.7013 85.2235 20.8187 85.2129 20.936C85.2129 21.0533 85.2129 21.1867 85.2129 21.336H78.8929C78.9249 21.944 79.0635 22.4507 79.3089 22.856C79.5649 23.2507 79.8795 23.5493 80.2529 23.752C80.6369 23.9547 81.0422 24.056 81.4689 24.056C82.0235 24.056 82.4875 23.928 82.8609 23.672C83.2342 23.416 83.5062 23.0693 83.6769 22.632H85.0049C84.7915 23.368 84.3809 23.9813 83.7729 24.472C83.1755 24.952 82.4075 25.192 81.4689 25.192ZM81.4689 18.008C80.8289 18.008 80.2582 18.2053 79.7569 18.6C79.2662 18.984 78.9835 19.5493 78.9089 20.296H83.9009C83.8689 19.5813 83.6235 19.0213 83.1649 18.616C82.7062 18.2107 82.1409 18.008 81.4689 18.008ZM90.6263 25.192C89.8796 25.192 89.2076 25.0213 88.6103 24.68C88.0129 24.3387 87.5383 23.8587 87.1863 23.24C86.8449 22.6107 86.6743 21.8747 86.6743 21.032C86.6743 20.1893 86.8503 19.4587 87.2023 18.84C87.5543 18.2107 88.0289 17.7253 88.6263 17.384C89.2343 17.0427 89.9116 16.872 90.6583 16.872C91.4049 16.872 92.0769 17.0427 92.6743 17.384C93.2716 17.7253 93.7409 18.2107 94.0823 18.84C94.4343 19.4587 94.6103 20.1893 94.6103 21.032C94.6103 21.8747 94.4343 22.6107 94.0823 23.24C93.7303 23.8587 93.2503 24.3387 92.6423 24.68C92.0449 25.0213 91.3729 25.192 90.6263 25.192ZM90.6263 24.04C91.0849 24.04 91.5116 23.928 91.9063 23.704C92.3009 23.48 92.6209 23.144 92.8663 22.696C93.1116 22.248 93.2343 21.6933 93.2343 21.032C93.2343 20.3707 93.1116 19.816 92.8663 19.368C92.6316 18.92 92.3169 18.584 91.9223 18.36C91.5276 18.136 91.1063 18.024 90.6583 18.024C90.1996 18.024 89.7729 18.136 89.3783 18.36C88.9836 18.584 88.6636 18.92 88.4183 19.368C88.1729 19.816 88.0503 20.3707 88.0503 21.032C88.0503 21.6933 88.1729 22.248 88.4183 22.696C88.6636 23.144 88.9783 23.48 89.3623 23.704C89.7569 23.928 90.1783 24.04 90.6263 24.04Z" fill="white"/>
</svg>
