<svg width="114" height="41" viewBox="0 0 114 41" fill="none" xmlns="http://www.w3.org/2000/svg">
<path d="M99.9844 15L105.984 21L99.9844 27L98.5781 25.5938L103.172 21L98.5781 16.4062L99.9844 15Z" fill="#111827"/>
<path d="M2.46525 25V13.8H3.80925V23.928H9.02525V25H2.46525ZM14.0158 25.192C13.2584 25.192 12.5864 25.0213 11.9998 24.68C11.4131 24.328 10.9491 23.8427 10.6078 23.224C10.2771 22.6053 10.1118 21.8747 10.1118 21.032C10.1118 20.2 10.2771 19.4747 10.6078 18.856C10.9384 18.2267 11.3971 17.7413 11.9838 17.4C12.5811 17.048 13.2691 16.872 14.0477 16.872C14.8158 16.872 15.4771 17.048 16.0318 17.4C16.5971 17.7413 17.0291 18.1947 17.3278 18.76C17.6264 19.3253 17.7758 19.9333 17.7758 20.584C17.7758 20.7013 17.7704 20.8187 17.7598 20.936C17.7598 21.0533 17.7598 21.1867 17.7598 21.336H11.4398C11.4718 21.944 11.6104 22.4507 11.8558 22.856C12.1118 23.2507 12.4264 23.5493 12.7998 23.752C13.1838 23.9547 13.5891 24.056 14.0158 24.056C14.5704 24.056 15.0344 23.928 15.4078 23.672C15.7811 23.416 16.0531 23.0693 16.2238 22.632H17.5518C17.3384 23.368 16.9278 23.9813 16.3198 24.472C15.7224 24.952 14.9544 25.192 14.0158 25.192ZM14.0158 18.008C13.3758 18.008 12.8051 18.2053 12.3038 18.6C11.8131 18.984 11.5304 19.5493 11.4557 20.296H16.4478C16.4158 19.5813 16.1704 19.0213 15.7118 18.616C15.2531 18.2107 14.6878 18.008 14.0158 18.008ZM22.1971 25.192C21.5358 25.192 20.9865 25.08 20.5491 24.856C20.1118 24.632 19.7865 24.3333 19.5731 23.96C19.3598 23.5867 19.2531 23.1813 19.2531 22.744C19.2531 21.9333 19.5625 21.3093 20.1811 20.872C20.7998 20.4347 21.6425 20.216 22.7091 20.216H24.8531V20.12C24.8531 19.4267 24.6718 18.904 24.3091 18.552C23.9465 18.1893 23.4611 18.008 22.8531 18.008C22.3305 18.008 21.8771 18.1413 21.4931 18.408C21.1198 18.664 20.8851 19.0427 20.7891 19.544H19.4131C19.4665 18.968 19.6585 18.4827 19.9891 18.088C20.3305 17.6933 20.7518 17.3947 21.2531 17.192C21.7545 16.9787 22.2878 16.872 22.8531 16.872C23.9625 16.872 24.7945 17.1707 25.3491 17.768C25.9145 18.3547 26.1971 19.1387 26.1971 20.12V25H24.9971L24.9171 23.576C24.6931 24.024 24.3625 24.408 23.9251 24.728C23.4985 25.0373 22.9225 25.192 22.1971 25.192ZM22.4051 24.056C22.9171 24.056 23.3545 23.9227 23.7171 23.656C24.0905 23.3893 24.3731 23.0427 24.5651 22.616C24.7571 22.1893 24.8531 21.7413 24.8531 21.272V21.256H22.8211C22.0318 21.256 21.4718 21.3947 21.1411 21.672C20.8211 21.9387 20.6611 22.2747 20.6611 22.68C20.6611 23.096 20.8105 23.432 21.1091 23.688C21.4185 23.9333 21.8505 24.056 22.4051 24.056ZM28.2134 25V17.064H29.4294L29.5414 18.584C29.7867 18.0613 30.16 17.6453 30.6614 17.336C31.1627 17.0267 31.7814 16.872 32.5174 16.872V18.28H32.1494C31.68 18.28 31.248 18.3653 30.8534 18.536C30.4587 18.696 30.144 18.9733 29.9094 19.368C29.6747 19.7627 29.5574 20.3067 29.5574 21V25H28.2134ZM34.0259 25V17.064H35.2419L35.3219 18.488C35.5779 17.9867 35.9459 17.592 36.4259 17.304C36.9059 17.016 37.4499 16.872 38.0579 16.872C38.9965 16.872 39.7432 17.16 40.2979 17.736C40.8632 18.3013 41.1459 19.176 41.1459 20.36V25H39.8019V20.504C39.8019 18.8507 39.1192 18.024 37.7539 18.024C37.0712 18.024 36.5005 18.2747 36.0419 18.776C35.5939 19.2667 35.3699 19.9707 35.3699 20.888V25H34.0259ZM47.4165 25V17.064H48.6325L48.7285 18.216C48.9845 17.7893 49.3258 17.4587 49.7525 17.224C50.1792 16.9893 50.6592 16.872 51.1925 16.872C51.8218 16.872 52.3605 17 52.8085 17.256C53.2672 17.512 53.6192 17.9013 53.8645 18.424C54.1418 17.944 54.5205 17.5653 55.0005 17.288C55.4912 17.0107 56.0192 16.872 56.5845 16.872C57.5338 16.872 58.2912 17.16 58.8565 17.736C59.4218 18.3013 59.7045 19.176 59.7045 20.36V25H58.3765V20.504C58.3765 19.6827 58.2112 19.064 57.8805 18.648C57.5498 18.232 57.0752 18.024 56.4565 18.024C55.8165 18.024 55.2832 18.2747 54.8565 18.776C54.4405 19.2667 54.2325 19.9707 54.2325 20.888V25H52.8885V20.504C52.8885 19.6827 52.7232 19.064 52.3925 18.648C52.0618 18.232 51.5872 18.024 50.9685 18.024C50.3392 18.024 49.8112 18.2747 49.3845 18.776C48.9685 19.2667 48.7605 19.9707 48.7605 20.888V25H47.4165ZM65.345 25.192C64.5983 25.192 63.9263 25.0213 63.329 24.68C62.7317 24.3387 62.257 23.8587 61.905 23.24C61.5637 22.6107 61.393 21.8747 61.393 21.032C61.393 20.1893 61.569 19.4587 61.921 18.84C62.273 18.2107 62.7477 17.7253 63.345 17.384C63.953 17.0427 64.6303 16.872 65.377 16.872C66.1237 16.872 66.7957 17.0427 67.393 17.384C67.9903 17.7253 68.4597 18.2107 68.801 18.84C69.153 19.4587 69.329 20.1893 69.329 21.032C69.329 21.8747 69.153 22.6107 68.801 23.24C68.449 23.8587 67.969 24.3387 67.361 24.68C66.7637 25.0213 66.0917 25.192 65.345 25.192ZM65.345 24.04C65.8037 24.04 66.2303 23.928 66.625 23.704C67.0197 23.48 67.3397 23.144 67.585 22.696C67.8303 22.248 67.953 21.6933 67.953 21.032C67.953 20.3707 67.8303 19.816 67.585 19.368C67.3503 18.92 67.0357 18.584 66.641 18.36C66.2463 18.136 65.825 18.024 65.377 18.024C64.9183 18.024 64.4917 18.136 64.097 18.36C63.7023 18.584 63.3823 18.92 63.137 19.368C62.8917 19.816 62.769 20.3707 62.769 21.032C62.769 21.6933 62.8917 22.248 63.137 22.696C63.3823 23.144 63.697 23.48 64.081 23.704C64.4757 23.928 64.897 24.04 65.345 24.04ZM71.1978 25V17.064H72.4138L72.5258 18.584C72.7711 18.0613 73.1444 17.6453 73.6458 17.336C74.1471 17.0267 74.7658 16.872 75.5018 16.872V18.28H75.1338C74.6644 18.28 74.2324 18.3653 73.8378 18.536C73.4431 18.696 73.1284 18.9733 72.8938 19.368C72.6591 19.7627 72.5418 20.3067 72.5418 21V25H71.1978ZM80.2814 25.192C79.524 25.192 78.852 25.0213 78.2654 24.68C77.6787 24.328 77.2147 23.8427 76.8734 23.224C76.5427 22.6053 76.3774 21.8747 76.3774 21.032C76.3774 20.2 76.5427 19.4747 76.8734 18.856C77.204 18.2267 77.6627 17.7413 78.2494 17.4C78.8467 17.048 79.5347 16.872 80.3134 16.872C81.0814 16.872 81.7427 17.048 82.2974 17.4C82.8627 17.7413 83.2947 18.1947 83.5934 18.76C83.892 19.3253 84.0414 19.9333 84.0414 20.584C84.0414 20.7013 84.036 20.8187 84.0254 20.936C84.0254 21.0533 84.0254 21.1867 84.0254 21.336H77.7054C77.7374 21.944 77.876 22.4507 78.1214 22.856C78.3774 23.2507 78.692 23.5493 79.0654 23.752C79.4494 23.9547 79.8547 24.056 80.2814 24.056C80.836 24.056 81.3 23.928 81.6734 23.672C82.0467 23.416 82.3187 23.0693 82.4894 22.632H83.8174C83.604 23.368 83.1934 23.9813 82.5854 24.472C81.988 24.952 81.22 25.192 80.2814 25.192ZM80.2814 18.008C79.6414 18.008 79.0707 18.2053 78.5694 18.6C78.0787 18.984 77.796 19.5493 77.7214 20.296H82.7134C82.6814 19.5813 82.436 19.0213 81.9774 18.616C81.5187 18.2107 80.9534 18.008 80.2814 18.008Z" fill="#111827"/>
</svg>
